<?xml version="1.0" standalone="no"?>
<svg xmlns:xlink="http://www.w3.org/1999/xlink" id="wave" style="transform:rotate(0deg); transition: 0.3s" viewBox="0 0 1440 230" version="1.1" xmlns="http://www.w3.org/2000/svg"><defs><linearGradient id="sw-gradient-0" x1="0" x2="0" y1="1" y2="0"><stop stop-color="rgba(64, 102, 175, 1)" offset="0%"/><stop stop-color="rgba(64, 102, 175, 1)" offset="100%"/></linearGradient></defs><path style="transform:translate(0, 0px); opacity:1" fill="url(#sw-gradient-0)" d="M0,23L48,42.2C96,61,192,100,288,118.8C384,138,480,138,576,138C672,138,768,138,864,122.7C960,107,1056,77,1152,61.3C1248,46,1344,46,1440,61.3C1536,77,1632,107,1728,118.8C1824,130,1920,123,2016,107.3C2112,92,2208,69,2304,65.2C2400,61,2496,77,2592,69C2688,61,2784,31,2880,23C2976,15,3072,31,3168,65.2C3264,100,3360,153,3456,172.5C3552,192,3648,176,3744,164.8C3840,153,3936,146,4032,145.7C4128,146,4224,153,4320,161C4416,169,4512,176,4608,153.3C4704,130,4800,77,4896,72.8C4992,69,5088,115,5184,145.7C5280,176,5376,192,5472,191.7C5568,192,5664,176,5760,176.3C5856,176,5952,192,6048,164.8C6144,138,6240,69,6336,69C6432,69,6528,138,6624,164.8C6720,192,6816,176,6864,168.7L6912,161L6912,230L6864,230C6816,230,6720,230,6624,230C6528,230,6432,230,6336,230C6240,230,6144,230,6048,230C5952,230,5856,230,5760,230C5664,230,5568,230,5472,230C5376,230,5280,230,5184,230C5088,230,4992,230,4896,230C4800,230,4704,230,4608,230C4512,230,4416,230,4320,230C4224,230,4128,230,4032,230C3936,230,3840,230,3744,230C3648,230,3552,230,3456,230C3360,230,3264,230,3168,230C3072,230,2976,230,2880,230C2784,230,2688,230,2592,230C2496,230,2400,230,2304,230C2208,230,2112,230,2016,230C1920,230,1824,230,1728,230C1632,230,1536,230,1440,230C1344,230,1248,230,1152,230C1056,230,960,230,864,230C768,230,672,230,576,230C480,230,384,230,288,230C192,230,96,230,48,230L0,230Z"/><defs><linearGradient id="sw-gradient-1" x1="0" x2="0" y1="1" y2="0"><stop stop-color="rgba(4, 59, 164, 1)" offset="0%"/><stop stop-color="rgba(4, 59, 164, 1)" offset="100%"/></linearGradient></defs><path style="transform:translate(0, 50px); opacity:0.9" fill="url(#sw-gradient-1)" d="M0,92L48,80.5C96,69,192,46,288,38.3C384,31,480,38,576,65.2C672,92,768,138,864,141.8C960,146,1056,107,1152,88.2C1248,69,1344,69,1440,69C1536,69,1632,69,1728,72.8C1824,77,1920,84,2016,80.5C2112,77,2208,61,2304,57.5C2400,54,2496,61,2592,69C2688,77,2784,84,2880,92C2976,100,3072,107,3168,118.8C3264,130,3360,146,3456,130.3C3552,115,3648,69,3744,57.5C3840,46,3936,69,4032,99.7C4128,130,4224,169,4320,172.5C4416,176,4512,146,4608,118.8C4704,92,4800,69,4896,69C4992,69,5088,92,5184,115C5280,138,5376,161,5472,168.7C5568,176,5664,169,5760,157.2C5856,146,5952,130,6048,134.2C6144,138,6240,161,6336,141.8C6432,123,6528,61,6624,38.3C6720,15,6816,31,6864,38.3L6912,46L6912,230L6864,230C6816,230,6720,230,6624,230C6528,230,6432,230,6336,230C6240,230,6144,230,6048,230C5952,230,5856,230,5760,230C5664,230,5568,230,5472,230C5376,230,5280,230,5184,230C5088,230,4992,230,4896,230C4800,230,4704,230,4608,230C4512,230,4416,230,4320,230C4224,230,4128,230,4032,230C3936,230,3840,230,3744,230C3648,230,3552,230,3456,230C3360,230,3264,230,3168,230C3072,230,2976,230,2880,230C2784,230,2688,230,2592,230C2496,230,2400,230,2304,230C2208,230,2112,230,2016,230C1920,230,1824,230,1728,230C1632,230,1536,230,1440,230C1344,230,1248,230,1152,230C1056,230,960,230,864,230C768,230,672,230,576,230C480,230,384,230,288,230C192,230,96,230,48,230L0,230Z"/></svg>